<?xml version="1.0" standalone="no"?>
<!DOCTYPE svg PUBLIC "-//W3C//DTD SVG 20010904//EN"
 "http://www.w3.org/TR/2001/REC-SVG-20010904/DTD/svg10.dtd">
<svg version="1.0" xmlns="http://www.w3.org/2000/svg"
 width="2000.000000pt" height="2000.000000pt" viewBox="0 0 2000.000000 2000.000000"
 preserveAspectRatio="xMidYMid meet">

<g transform="translate(0.000000,2000.000000) scale(0.100000,-0.100000)"
fill="#000000" stroke="none">
<path d="M13415 16836 c-305 -54 -466 -110 -918 -317 -404 -186 -543 -259
-762 -405 -284 -189 -404 -329 -436 -510 -33 -189 99 -397 321 -506 108 -53
208 -84 310 -94 38 -3 74 -12 79 -18 5 -6 14 -31 21 -56 17 -63 47 -119 85
-160 32 -34 33 -38 38 -140 7 -121 32 -218 87 -337 78 -168 206 -328 323 -404
l58 -37 -81 -50 c-55 -34 -130 -67 -232 -101 l-152 -52 -175 -3 c-131 -3 -200
-9 -271 -25 -52 -11 -96 -21 -97 -21 -2 0 -3 18 -3 40 0 67 -20 141 -65 236
-51 110 -95 176 -234 354 -404 520 -845 978 -1391 1445 -386 331 -574 472
-744 557 l-80 40 -71 -37 c-126 -68 -385 -227 -554 -340 -441 -295 -853 -625
-1301 -1040 -193 -180 -589 -578 -745 -750 -334 -369 -619 -749 -800 -1070
-37 -66 -81 -142 -96 -168 -32 -53 -36 -82 -16 -106 7 -9 26 -45 42 -81 85
-197 243 -425 536 -776 447 -535 986 -1001 1557 -1346 361 -218 608 -280 823
-208 32 11 60 20 62 20 2 0 7 -44 9 -98 9 -156 67 -301 194 -484 30 -43 54
-82 54 -87 0 -5 63 -224 140 -486 172 -583 310 -1082 310 -1120 0 -3 -305 -5
-677 -3 -373 2 -725 0 -783 -5 l-105 -8 -57 95 c-32 52 -58 96 -58 99 0 3 26
13 58 22 178 52 569 220 619 267 52 49 16 182 -77 282 -94 100 -182 138 -257
112 -144 -51 -585 -60 -786 -17 -119 26 -166 43 -377 136 -214 95 -313 126
-420 132 -149 9 -276 -36 -386 -139 -157 -147 -196 -368 -100 -563 77 -156
249 -263 498 -310 247 -47 683 -37 966 21 27 5 32 4 32 -11 0 -10 20 -51 45
-90 l44 -71 -115 -285 c-131 -323 -425 -1032 -430 -1038 -2 -2 -65 17 -141 42
-344 114 -587 145 -1008 128 -191 -8 -265 -15 -364 -36 -283 -59 -556 -171
-836 -344 -327 -202 -659 -531 -869 -861 -68 -107 -186 -348 -229 -469 -217
-604 -202 -1293 43 -1908 104 -261 274 -540 458 -754 496 -575 1301 -916 2087
-886 546 22 1028 191 1465 516 141 104 386 347 493 488 244 322 416 686 501
1067 14 59 26 109 28 110 7 5 507 -15 544 -22 l41 -7 -18 -95 c-10 -52 -23
-118 -29 -145 l-11 -51 -62 4 c-53 3 -67 0 -97 -20 -41 -28 -80 -91 -80 -131
0 -20 -15 -42 -58 -85 -103 -101 -162 -231 -162 -356 0 -58 4 -79 20 -98 19
-25 19 -26 -2 -75 -28 -66 -20 -94 40 -138 103 -76 232 -136 507 -237 541
-198 885 -295 969 -274 42 10 95 64 106 108 l11 39 105 -7 c135 -9 341 11 384
37 92 56 93 189 2 321 -48 70 -148 130 -578 348 l-401 203 40 111 c21 61 54
158 72 216 l33 105 93 6 c170 12 311 64 430 159 177 142 276 333 287 552 3 66
0 131 -7 170 -15 74 -60 187 -101 252 -17 26 -30 51 -30 57 0 6 105 124 233
262 456 492 911 997 1413 1567 272 309 313 356 671 770 121 140 229 263 240
273 20 18 21 17 32 -65 17 -116 97 -589 114 -671 11 -50 12 -70 3 -73 -6 -2
-63 -21 -126 -43 -228 -78 -422 -174 -627 -310 -164 -108 -257 -184 -412 -335
-426 -417 -667 -889 -758 -1483 -24 -156 -24 -555 0 -718 71 -482 252 -923
528 -1287 400 -526 1016 -882 1714 -990 187 -29 559 -31 740 -5 563 83 1045
317 1444 702 440 425 716 983 802 1625 16 123 16 476 0 605 -76 599 -323 1099
-755 1531 -335 334 -686 545 -1130 679 -276 83 -539 111 -911 96 -132 -5 -243
-6 -246 -3 -4 4 -12 43 -19 87 -6 44 -39 232 -71 419 -33 186 -58 340 -56 343
2 2 16 -1 31 -7 39 -14 108 -12 130 5 16 12 22 11 46 -7 38 -28 108 -35 148
-14 29 15 32 15 45 -4 33 -47 123 -64 191 -36 18 8 46 29 61 49 l28 34 48 -18
c28 -11 74 -19 107 -19 96 1 160 42 193 126 8 23 38 209 39 246 0 4 26 24 58
44 127 81 342 286 453 432 73 96 140 238 146 310 5 55 4 61 -26 95 -40 44
-105 77 -156 77 -35 0 -46 -7 -100 -62 -33 -35 -98 -112 -144 -173 -146 -191
-224 -268 -412 -413 -14 -10 -33 -4 -117 36 l-101 49 35 34 c106 101 218 291
247 419 27 118 28 136 3 172 -25 38 -88 65 -129 54 -45 -11 -119 -98 -202
-237 -143 -241 -180 -288 -218 -273 -9 3 -21 22 -28 42 -29 87 -172 441 -195
480 -14 23 -39 59 -57 78 -30 36 -31 36 -91 29 l-61 -6 -27 68 c-244 623 -355
926 -453 1237 -123 393 -237 828 -300 1146 -20 102 -52 254 -71 338 l-35 153
45 43 46 42 0 123 0 123 107 147 c123 167 224 277 327 355 67 52 255 166 378
231 l55 29 59 -49 c32 -26 88 -62 124 -79 61 -29 72 -31 180 -31 91 -1 129 -5
185 -23 90 -29 227 -38 335 -23 377 56 644 298 746 678 28 105 26 298 -5 378
-31 80 -30 100 11 240 46 155 84 342 98 486 6 63 13 129 16 147 l5 32 68 0
c90 0 275 32 376 65 44 15 125 50 180 78 80 42 117 69 186 137 127 126 179
238 194 418 11 121 -15 149 -86 96 -55 -42 -205 -112 -215 -101 -2 1 8 34 22
72 14 39 32 102 41 140 25 121 14 371 -19 413 -6 6 -20 12 -33 12 -17 0 -40
-27 -103 -122 -143 -217 -235 -310 -418 -421 l-91 -55 -7 60 c-21 205 -129
404 -313 579 -195 186 -430 298 -742 354 -276 50 -639 68 -796 41z m461 -141
c347 -13 649 -103 869 -260 70 -49 195 -174 237 -237 35 -51 111 -198 105
-204 -7 -8 -268 -55 -432 -79 -527 -76 -1068 -53 -1445 61 -92 28 -240 92
-240 104 0 4 66 26 148 49 377 106 531 125 927 118 154 -2 363 -12 464 -22
178 -17 185 -17 198 1 23 31 -5 56 -91 81 -106 30 -290 60 -416 68 -68 5 -130
15 -175 30 -339 113 -793 69 -1191 -115 l-84 -39 -38 57 c-21 31 -45 73 -54
93 l-16 36 96 38 c54 21 182 67 286 102 103 36 223 80 265 98 l76 33 195 -4
c107 -2 249 -6 316 -9z m-4715 -614 c24 -21 85 -70 136 -108 51 -39 89 -74 85
-78 -4 -3 -2 -5 4 -3 23 7 401 -280 396 -301 -1 -7 2 -10 8 -6 16 10 225 -172
508 -443 167 -160 481 -489 579 -607 l31 -38 -76 -55 c-164 -117 -444 -298
-600 -386 l-59 -33 -38 32 c-24 21 -35 37 -30 46 5 8 4 10 -3 5 -7 -4 -60 40
-135 112 -140 137 -144 141 -297 282 -257 237 -371 339 -405 364 -11 8 -15 18
-10 26 5 9 4 11 -4 6 -7 -5 -43 21 -94 66 -45 41 -96 87 -114 103 -18 15 -30
32 -27 37 3 5 1 7 -3 6 -5 -2 -47 26 -93 62 -46 36 -101 77 -122 91 -21 14
-37 27 -36 30 2 2 1 3 -1 2 -2 -2 -28 11 -56 27 -29 17 -61 30 -71 30 -11 0
-125 -43 -254 -95 -524 -213 -589 -235 -711 -235 -44 0 -79 4 -79 9 0 16 266
229 547 440 239 178 940 649 969 650 6 1 31 -16 55 -38z m5715 -750 c-3 -5
-17 -51 -31 -102 -22 -84 -23 -95 -10 -116 10 -14 25 -23 42 -23 28 0 100 50
171 119 36 35 42 38 38 19 -3 -13 -24 -122 -46 -243 -61 -329 -130 -648 -144
-662 -17 -17 -218 -44 -376 -49 -249 -9 -418 13 -670 87 -114 34 -280 101
-375 152 l-60 32 2 190 2 190 68 47 c67 46 133 110 163 157 15 23 17 23 70 11
80 -18 360 -25 476 -11 227 27 440 86 594 166 96 49 93 48 86 36z m-6024 -305
c26 -21 45 -43 41 -49 -3 -5 -1 -7 4 -4 20 12 502 -410 833 -728 52 -50 141
-136 198 -190 56 -54 102 -101 102 -104 0 -13 -284 -149 -513 -246 -196 -83
-311 -127 -527 -198 -435 -144 -872 -235 -1410 -293 -199 -21 -804 -30 -1030
-15 -182 12 -391 34 -514 52 -39 6 -77 11 -83 12 -7 0 -13 2 -13 4 0 6 141
194 159 212 9 9 25 30 35 46 74 114 580 691 603 689 7 -1 10 3 7 8 -8 13 337
359 349 351 6 -3 7 -2 4 4 -6 9 34 50 194 199 83 78 171 154 179 154 3 0 16
-9 28 -20 12 -11 24 -20 27 -20 3 1 29 -3 58 -9 148 -30 230 -9 628 163 96 41
229 101 297 133 l123 59 87 -86 c48 -47 108 -103 134 -124z m3863 -247 c22 -6
75 -27 118 -46 74 -35 78 -38 91 -82 8 -25 28 -84 46 -131 27 -74 73 -241 67
-245 -1 -1 -45 -9 -98 -18 -196 -35 -302 -15 -389 72 -101 101 -120 302 -37
395 57 63 113 79 202 55z m772 -354 c177 -117 442 -219 668 -255 228 -37 532
-27 738 25 l27 7 0 -161 c0 -230 -28 -353 -109 -478 -102 -158 -290 -283 -471
-312 -125 -21 -235 -13 -427 30 l-91 20 -109 132 c-60 73 -122 149 -137 169
l-28 37 37 59 c108 175 118 392 24 521 -16 23 -70 73 -120 113 -59 47 -88 76
-85 85 4 8 6 23 6 34 0 10 2 19 4 19 2 0 35 -20 73 -45z m42 -260 c58 -85 54
-204 -10 -362 l-21 -53 -60 102 -60 103 7 115 c3 63 8 134 12 157 l5 43 53
-37 c29 -20 62 -51 74 -68z m-466 -47 c3 -24 4 -44 2 -46 -2 -2 -22 10 -45 27
l-43 31 34 15 c47 20 46 20 52 -27z m-72 -373 c104 -160 242 -385 238 -389 -2
-1 -35 -17 -74 -35 -103 -48 -209 -116 -311 -202 l-92 -77 -62 152 c-35 83
-93 216 -130 296 l-67 146 77 43 c101 56 201 132 252 191 l41 47 32 -36 c17
-20 61 -81 96 -136z m-631 -1695 c27 -175 180 -805 285 -1175 135 -472 346
-1072 515 -1464 38 -90 69 -165 68 -166 -2 -2 -34 -17 -72 -34 -38 -17 -91
-45 -118 -61 -26 -17 -52 -30 -56 -30 -4 0 -23 35 -41 78 -19 42 -70 145 -113
227 -376 718 -721 1534 -938 2214 -28 90 -67 204 -86 253 -19 49 -34 91 -34
92 0 2 21 6 48 9 59 7 454 104 496 121 17 7 32 12 33 12 1 -1 7 -35 13 -76z
m-435 -915 c101 -281 286 -729 448 -1085 123 -271 331 -703 376 -781 23 -39
40 -74 37 -76 -10 -11 -275 481 -437 812 -124 255 -183 387 -309 695 -23 58
-78 188 -122 289 -82 189 -84 198 -61 275 8 29 18 10 68 -129z m-138 -88 c110
-362 509 -1220 827 -1776 l65 -114 -62 -36 c-91 -53 -91 -54 42 -312 l109
-214 -24 -28 c-31 -36 -39 -72 -27 -118 9 -33 7 -42 -19 -80 -52 -77 -62 -175
-25 -249 10 -18 17 -35 17 -37 0 -3 -96 -2 -212 1 -117 3 -337 5 -489 6 l-275
0 -50 73 c-28 39 -192 277 -365 527 -174 250 -394 570 -491 710 -96 140 -196
285 -221 321 l-46 65 156 145 c329 305 738 778 966 1115 45 67 84 120 86 118
3 -2 20 -55 38 -117z m-2132 -399 c271 -251 466 -488 797 -963 585 -840 1124
-1625 1153 -1677 80 -147 100 -282 58 -399 -67 -185 -229 -320 -536 -448 l-98
-40 -127 71 c-70 39 -152 87 -182 107 -53 35 -190 157 -190 170 0 3 21 19 48
36 66 42 191 171 247 256 50 74 104 197 105 237 0 16 -44 77 -127 180 -553
679 -1251 1582 -1414 1829 -108 164 -143 284 -121 412 15 89 46 159 130 293
l67 106 45 -38 c25 -21 90 -80 145 -132z m390 -2390 c80 -74 149 -128 161
-128 6 0 17 -7 24 -15 11 -13 -15 -15 -222 -15 l-234 0 0 123 c1 67 -3 165 -7
217 l-8 95 118 -116 c65 -64 141 -136 168 -161z m2994 123 c16 -4 27 -17 32
-34 4 -16 13 -35 20 -43 10 -12 5 -14 -27 -16 -22 -1 -56 0 -77 1 -23 1 -49
-4 -63 -14 -35 -23 -64 -90 -64 -148 l0 -49 -32 7 c-45 10 -54 19 -72 72 -20
59 -20 79 3 130 21 44 49 67 109 89 39 14 130 17 171 5z m117 -185 c1 0 27
-32 59 -70 l58 -69 -94 7 c-52 3 -120 9 -153 13 l-58 6 5 38 c3 20 13 49 23
63 18 25 22 26 89 20 39 -4 70 -7 71 -8z m-176 -331 c0 -38 -1405 -1638 -2259
-2574 -163 -178 -303 -333 -313 -344 l-16 -21 -39 26 c-106 70 -237 118 -326
118 -45 0 -48 -25 35 255 61 204 101 355 115 435 7 37 13 46 33 48 35 5 48 18
81 84 39 77 76 191 142 433 65 236 83 317 93 405 5 50 12 69 28 80 17 12 104
81 293 232 11 9 116 -20 155 -42 27 -15 39 -13 143 31 239 99 384 189 500 311
127 132 175 244 175 409 l0 87 433 6 c368 5 482 9 700 24 15 1 27 0 27 -3z
m-3642 -185 c17 -80 55 -269 82 -420 28 -151 59 -312 70 -358 11 -46 20 -91
20 -101 0 -17 -620 -641 -636 -641 -5 0 -126 190 -269 423 -142 232 -373 606
-512 831 -139 224 -253 409 -253 410 0 0 330 1 733 1 l732 0 33 -145z m1002
94 c-47 -31 -91 -63 -97 -72 -21 -26 -15 -66 17 -109 l30 -41 -52 -43 c-68
-56 -158 -139 -283 -263 l-100 -99 -7 214 c-3 118 -8 271 -11 342 l-5 127 297
0 296 0 -85 -56z m-2076 -1108 l327 -529 -37 -30 c-37 -31 -73 -95 -74 -132 0
-13 -18 -30 -52 -50 -29 -16 -105 -83 -170 -148 l-117 -118 -49 74 c-82 120
-169 225 -296 356 -185 189 -386 346 -593 466 -46 25 -83 50 -83 55 0 5 15 44
34 87 80 188 325 832 412 1082 2 8 87 -121 188 -285 100 -164 330 -537 510
-828z m2136 747 c66 -82 204 -208 290 -265 41 -27 76 -51 78 -53 1 -1 -75 -54
-170 -118 -178 -118 -350 -244 -781 -570 -137 -103 -250 -187 -252 -187 -2 0
-38 32 -79 71 -41 39 -96 87 -122 107 l-46 37 485 480 c266 264 497 497 512
518 15 20 30 37 34 37 3 -1 26 -26 51 -57z m-47 -915 c-14 -51 -56 -188 -93
-303 -38 -116 -71 -228 -75 -248 l-7 -37 -144 0 c-78 0 -165 5 -191 10 l-48
11 25 130 26 130 264 199 c146 109 266 199 267 199 0 1 -10 -41 -24 -91z
m-1060 -165 c13 -21 57 -73 97 -116 61 -66 71 -80 59 -91 -23 -21 -359 -289
-392 -313 -17 -12 -54 -28 -83 -34 -74 -17 -119 6 -157 81 l-28 55 230 228
c126 125 234 227 239 227 5 0 21 -17 35 -37z m-3156 -28 c190 -25 481 -98 498
-125 8 -13 -355 -825 -579 -1294 -80 -166 -83 -172 -91 -164 -3 2 31 308 75
678 43 371 77 678 74 682 -10 16 -34 7 -38 -14 -6 -25 -156 -1316 -156 -1333
0 -6 -36 -16 -80 -23 -73 -10 -131 -32 -198 -73 -20 -12 -25 -12 -35 1 -74 96
-833 1037 -841 1042 -13 8 -26 1 -26 -16 0 -7 191 -250 424 -541 l425 -528
-35 -40 c-44 -52 -76 -118 -90 -187 -10 -52 -12 -55 -40 -53 -16 2 -321 32
-679 68 -424 42 -653 61 -659 55 -19 -19 9 -29 114 -40 58 -6 123 -13 145 -15
62 -7 835 -85 975 -98 l125 -12 12 -70 c8 -42 29 -102 53 -150 38 -75 39 -80
23 -96 -10 -9 -244 -204 -520 -433 -277 -230 -503 -424 -503 -432 0 -8 7 -14
15 -14 8 0 250 195 537 434 l522 434 40 -34 c44 -38 122 -78 174 -89 25 -5 32
-12 32 -31 0 -14 -25 -185 -55 -382 -30 -196 -73 -478 -95 -627 -22 -148 -42
-280 -45 -293 -5 -22 18 -43 32 -29 3 3 51 306 107 674 l101 667 83 13 c46 7
105 22 131 34 27 11 64 19 82 17 32 -3 56 -32 429 -530 232 -310 401 -527 409
-525 8 1 16 7 18 12 1 6 -168 239 -377 518 -209 279 -380 510 -380 512 0 12
1368 -7 1558 -21 l83 -6 -6 -31 c-15 -68 -80 -257 -121 -350 -153 -346 -427
-667 -754 -884 -230 -153 -510 -260 -809 -310 -149 -25 -474 -24 -626 1 -620
104 -1126 447 -1443 979 -208 349 -314 800 -283 1195 39 487 223 902 555 1249
293 307 632 489 1131 608 128 31 154 34 302 34 93 1 213 -6 280 -14z m8040 0
c500 -66 933 -278 1259 -617 270 -280 444 -616 531 -1024 25 -120 27 -146 27
-374 1 -263 -7 -332 -60 -530 -187 -696 -726 -1249 -1409 -1446 -213 -62 -323
-77 -565 -78 -243 -1 -346 12 -556 69 -355 98 -659 275 -912 533 -275 280
-461 632 -542 1025 -122 588 6 1167 362 1640 79 105 280 306 385 385 174 131
360 230 572 303 63 22 115 38 117 37 1 -2 52 -254 114 -562 111 -553 197 -926
263 -1143 l34 -112 -24 -35 c-17 -23 -26 -52 -30 -92 -4 -51 -1 -66 24 -114
23 -46 37 -60 82 -82 71 -36 123 -36 192 0 43 22 59 38 81 81 36 69 37 127 3
190 -14 25 -38 55 -54 65 -25 17 -31 32 -50 125 -12 58 -42 197 -67 308 l-45
203 -17 510 c-17 508 -22 554 -52 524 -9 -9 -5 -191 14 -704 l5 -125 -34 135
c-64 255 -127 524 -165 707 l-38 183 37 9 c20 5 45 12 56 14 49 11 353 6 462
-8z m-7101 -346 c362 -244 637 -608 779 -1031 25 -73 45 -140 45 -150 0 -13
-14 -17 -72 -22 -152 -12 -1328 -42 -1328 -33 0 3 170 137 378 298 207 160
396 307 420 326 41 33 52 56 33 67 -5 4 -211 -151 -458 -342 l-449 -349 -86
-6 -87 -6 86 177 c244 505 332 694 522 1116 l31 68 57 -32 c32 -18 90 -54 129
-81z m2366 -109 c-14 -52 -27 -97 -28 -99 -2 -2 -16 6 -33 18 -17 12 -46 27
-65 34 -19 7 -36 15 -38 19 -2 4 37 38 87 77 61 48 92 66 97 58 3 -7 -5 -55
-20 -107z m6109 83 c13 -16 12 -17 -3 -4 -10 7 -18 15 -18 17 0 8 8 3 21 -13z
m-5976 -113 c25 -9 348 -71 446 -85 l47 -7 -18 -51 c-10 -29 -41 -131 -70
-227 -28 -96 -67 -223 -86 -281 l-35 -106 -44 -6 c-24 -4 -72 -16 -106 -27
-51 -18 -64 -19 -75 -8 -6 7 -53 75 -103 151 l-92 138 45 222 c24 122 47 239
51 260 7 42 5 40 40 27z m-1080 -555 c231 -203 609 -493 974 -746 83 -57 146
-105 142 -107 -16 -5 -146 49 -216 90 -87 52 -182 121 -305 224 -362 302 -794
634 -915 701 -17 10 -16 13 15 53 l33 42 86 -85 c47 -46 131 -124 186 -172z
m858 187 c-4 -18 -8 -20 -20 -10 -13 10 -13 14 3 25 22 16 25 13 17 -15z m760
-508 c66 -17 197 -79 197 -93 0 -5 -62 -76 -137 -158 -76 -82 -152 -165 -170
-186 -56 -65 -113 -46 -113 37 0 19 -7 56 -15 80 -15 45 -96 191 -137 248 -12
17 -17 33 -12 38 8 8 66 25 149 43 47 11 182 6 238 -9z m-1608 -154 c3 -5 1
-10 -4 -10 -6 0 -11 5 -11 10 0 6 2 10 4 10 3 0 8 -4 11 -10z m274 -164 c70
-41 192 -106 271 -146 80 -39 146 -74 147 -78 10 -29 -19 -33 -335 -39 l-322
-6 0 29 c-1 38 -18 218 -26 266 l-6 37 59 4 c32 2 64 4 71 5 8 1 71 -31 141
-72z m1752 -31 c48 -101 62 -176 56 -295 -5 -122 -29 -205 -84 -299 -91 -153
-233 -262 -400 -305 -79 -21 -240 -21 -318 -1 -180 47 -335 174 -420 344 -14
27 -25 51 -25 53 0 3 66 8 148 12 81 4 176 11 212 16 59 8 67 7 95 -14 49 -37
91 -49 150 -44 107 9 185 96 185 205 l0 54 173 184 c194 208 175 201 228 90z
m-2593 3 c6 -40 14 -110 18 -155 l7 -83 -424 0 c-233 0 -597 3 -808 7 -377 6
-384 7 -389 27 -3 11 -20 50 -39 86 l-33 65 43 37 c23 21 51 40 62 42 11 3
245 10 520 17 275 6 588 15 695 19 107 4 227 7 266 8 l72 2 10 -72z m-2044
-45 c-19 -42 -36 -78 -38 -80 -1 -1 -22 -13 -47 -26 -123 -65 -145 -232 -43
-331 64 -62 178 -73 252 -23 36 23 45 25 125 20 48 -3 87 -9 87 -12 0 -22 -72
-99 -122 -131 -72 -47 -140 -64 -229 -58 -132 10 -239 84 -298 208 -22 47 -26
68 -26 150 0 82 4 103 26 151 31 66 90 129 149 159 46 24 133 48 172 49 l27 1
-35 -77z m374 50 c-27 -26 -28 -26 -47 -9 -28 25 -18 36 32 36 l42 0 -27 -27z
m-76 -110 c23 -25 68 -103 68 -118 0 -3 -40 -5 -90 -5 l-90 0 37 75 c21 41 40
75 43 75 4 0 18 -12 32 -27z m3725 -286 c-6 -16 -18 -12 -104 35 -50 27 -70
43 -62 49 17 10 172 -68 166 -84z m-2588 -132 c381 -51 394 -52 389 -27 -3 14
-31 21 -178 42 l-175 25 285 3 c157 1 290 0 296 -2 7 -3 8 -25 3 -73 -15 -121
-10 -115 -87 -108 -37 3 -418 7 -848 8 l-780 2 42 62 c23 34 45 71 49 82 7 23
9 23 465 29 195 2 221 0 539 -43z m1728 39 l90 -7 -19 -106 c-10 -58 -20 -107
-22 -109 -2 -1 -135 3 -295 10 l-293 12 7 95 c4 53 9 99 12 104 5 9 395 9 520
1z m253 -194 c11 -16 20 -31 20 -34 0 -3 -23 -6 -50 -6 -54 0 -55 1 -35 67 6
19 44 3 65 -27z m133 -160 c18 -17 17 -24 -43 -221 -33 -112 -66 -218 -71
-236 -9 -27 -17 -33 -61 -43 -44 -11 -143 -8 -155 4 -4 3 56 327 89 479 l10
48 106 -7 c82 -5 111 -10 125 -24z m177 -115 l49 -25 -49 -99 c-48 -96 -51
-99 -87 -103 -21 -3 -39 -4 -41 -3 -3 3 71 255 76 255 1 0 25 -11 52 -25z
m180 -59 c0 -1 -23 -58 -51 -127 -28 -68 -80 -200 -115 -294 -36 -93 -85 -222
-109 -286 -24 -64 -55 -153 -67 -198 -22 -78 -24 -82 -48 -76 -14 4 -29 10
-34 15 -5 5 7 45 27 92 20 46 63 153 96 238 32 85 86 221 119 301 50 120 82
213 117 335 2 8 65 8 65 0z m-1019 -751 c46 -24 81 -45 78 -45 -3 0 -32 9 -64
20 -32 11 -66 20 -75 20 -11 0 -20 10 -22 25 -3 14 -4 25 -3 25 2 0 41 -20 86
-45z m1110 -385 c104 -24 317 -66 434 -84 76 -12 -162 6 -260 19 -78 11 -140
27 -210 55 -55 21 -97 39 -94 39 4 1 62 -12 130 -29z m732 -107 c-7 -2 -21 -2
-30 0 -10 3 -4 5 12 5 17 0 24 -2 18 -5z"/>
<path d="M14599 14997 c-26 -17 -34 -30 -34 -52 l0 -30 75 -6 c78 -5 123 -23
152 -58 37 -44 118 -11 104 43 -8 33 -62 85 -111 107 -58 27 -143 25 -186 -4z"/>
<path d="M14704 14692 c-27 -18 -50 -99 -70 -255 -8 -55 12 -87 55 -87 49 0
62 21 86 135 29 141 -8 249 -71 207z"/>
<path d="M14265 14490 c-12 -19 21 -55 90 -100 63 -41 67 -42 83 -26 16 17 14
20 -28 58 -77 70 -129 94 -145 68z"/>
<path d="M14114 14475 c-4 -8 0 -22 7 -31 16 -19 83 -54 104 -54 24 0 29 29 9
51 -40 44 -109 64 -120 34z"/>
<path d="M12617 14603 c-19 -18 -3 -40 45 -63 28 -13 92 -48 141 -77 92 -55
126 -64 147 -38 47 56 -110 158 -276 179 -28 3 -53 3 -57 -1z"/>
<path d="M14664 5095 c-269 -283 -491 -522 -492 -531 -11 -48 67 23 365 337
180 190 401 423 491 517 150 158 174 192 138 192 -7 0 -233 -232 -502 -515z"/>
<path d="M12572 5480 c4 -23 1042 -980 1063 -980 49 0 32 16 -755 738 -157
144 -291 262 -298 262 -8 0 -12 -8 -10 -20z"/>
<path d="M15015 4327 c-624 -9 -705 -13 -705 -34 0 -14 51 -15 498 -9 273 3
599 9 725 13 215 6 227 7 227 25 0 18 -7 19 -112 16 -62 -2 -347 -6 -633 -11z"/>
<path d="M13370 4240 c-69 -4 -190 -10 -270 -14 -627 -27 -976 -49 -989 -61
-13 -12 -12 -15 5 -22 17 -6 575 17 884 37 74 5 196 11 270 15 246 10 291 16
288 34 -4 20 -24 21 -188 11z"/>
<path d="M14214 4015 c-8 -19 -35 9 600 -614 231 -226 424 -410 430 -408 6 2
11 10 11 19 0 13 -1004 1009 -1026 1016 -5 2 -12 -4 -15 -13z"/>
<path d="M13205 3449 c-258 -291 -471 -539 -473 -549 -2 -12 2 -20 10 -20 16
0 963 1064 963 1082 0 7 -7 14 -15 15 -9 2 -205 -212 -485 -528z"/>
<path d="M13937 3883 c-4 -3 -7 -327 -7 -720 0 -645 2 -714 16 -720 9 -3 19
-1 23 5 3 5 5 332 3 726 -2 585 -5 716 -15 716 -8 0 -17 -3 -20 -7z"/>
</g>
</svg>
